# xmcd
#
# Track frame offsets: 
#        180
#        23107
#        38177
#        48297
#        62345
#        84570
#        100460
#        113627
#        125412
#        145075
#        161577
#        173060
#        190585
#        208680
#        231782
#
# Disc length: 3406 seconds
#
# Revision: 13
# Processed by: cddbd v1.5.2PL0 Copyright (c) Steve Scherf et al.
# Submitted via: ExactAudioCopy v0.95b4
#
DISCID=bf0d4c0f
DTITLE=Israel Kamakawiwo'ole - Facing Future
DYEAR=1993
DGENRE=Reggae
TTITLE0=Hawai'i 78 Introduction
TTITLE1=Ka Huila Wai
TTITLE2='Ama'ama
TTITLE3=Panini Pua Kea
TTITLE4=Take Me Home Country Road
TTITLE5=Kuhio Bay
TTITLE6=Ka Pua U'i
TTITLE7=White Sandy Beach of Hawai'i
TTITLE8=Henehene Kou'aka
TTITLE9=La 'Elima
TTITLE10=Pili Me Ka'u Manu
TTITLE11=Maui Hawaiian Sup'pa Man
TTITLE12=Kaulana Kawaihae
TTITLE13=Over the Rainbow/What a Wonderful World
TTITLE14=Hawai'i '78
EXTD=
EXTT0=
EXTT1=
EXTT2=
EXTT3=
EXTT4=
EXTT5=
EXTT6=
EXTT7=
EXTT8=
EXTT9=
EXTT10=
EXTT11=
EXTT12=
EXTT13=
EXTT14=
PLAYORDER=
